<svg xmlns="http://www.w3.org/2000/svg" viewBox="0 0 995 585" width="995" height="585">
	<style>
		tspan { white-space:pre }
		.shp0 { fill: #3f3d56 } 
		.shp1 { fill: #e6e6e6 } 
		.shp2 { fill: #44f1a6 } 
		.shp3 { fill: #cccccc } 
		.shp4 { fill: #2f2e41 } 
	</style>
	<path id="Layer" class="shp0" d="M0 582.43L324.03 582.43L324.03 584.67L0 584.67L0 582.43Z" />
	<path id="Layer" fill-rule="evenodd" class="shp0" d="M985.34 482L179.34 482C178.16 482 176.99 481.77 175.9 481.31C174.81 480.86 173.81 480.2 172.98 479.36C172.14 478.53 171.48 477.53 171.03 476.44C170.57 475.35 170.34 474.18 170.34 473L170.34 9C170.34 7.82 170.57 6.65 171.03 5.56C171.48 4.47 172.14 3.47 172.98 2.64C173.81 1.8 174.81 1.14 175.9 0.69C176.99 0.23 178.16 0 179.34 0L985.34 0C986.52 0 987.69 0.23 988.78 0.69C989.87 1.14 990.86 1.8 991.7 2.64C992.54 3.47 993.2 4.47 993.65 5.56C994.1 6.65 994.34 7.82 994.34 9L994.34 473C994.34 474.18 994.1 475.35 993.65 476.44C993.2 477.53 992.54 478.53 991.7 479.36C990.86 480.2 989.87 480.86 988.78 481.31C987.69 481.77 986.52 482 985.34 482ZM179.34 2C178.42 2 177.51 2.18 176.66 2.54C175.81 2.89 175.04 3.4 174.39 4.05C173.74 4.7 173.23 5.47 172.87 6.32C172.52 7.17 172.34 8.08 172.34 9L172.34 473C172.34 473.92 172.52 474.83 172.87 475.68C173.23 476.53 173.74 477.3 174.39 477.95C175.04 478.6 175.81 479.11 176.66 479.46C177.51 479.82 178.42 480 179.34 480L985.34 480C986.26 480 987.17 479.82 988.02 479.46C988.87 479.11 989.64 478.6 990.29 477.95C990.94 477.3 991.45 476.53 991.8 475.68C992.16 474.83 992.34 473.92 992.34 473L992.34 9C992.34 8.08 992.16 7.17 991.8 6.32C991.45 5.47 990.94 4.7 990.29 4.05C989.64 3.4 988.87 2.89 988.02 2.54C987.17 2.18 986.26 2 985.34 2L179.34 2Z" />
	<path id="Layer" class="shp1" d="M498.46 350.25L243.84 350.25C242.72 350.25 241.62 350.03 240.59 349.6C239.56 349.17 238.62 348.55 237.83 347.76C237.04 346.97 236.42 346.03 235.99 345C235.56 343.97 235.34 342.87 235.34 341.75L235.34 184.75C235.34 183.63 235.56 182.53 235.99 181.5C236.42 180.47 237.04 179.53 237.83 178.74C238.62 177.95 239.56 177.33 240.59 176.9C241.62 176.47 242.72 176.25 243.84 176.25L498.46 176.25C499.58 176.25 500.68 176.47 501.71 176.9C502.75 177.33 503.68 177.95 504.47 178.74C505.26 179.53 505.89 180.47 506.31 181.5C506.74 182.53 506.96 183.63 506.96 184.75L506.96 341.75C506.96 342.87 506.74 343.97 506.31 345C505.89 346.03 505.26 346.97 504.47 347.76C503.68 348.55 502.75 349.17 501.71 349.6C500.68 350.03 499.58 350.25 498.46 350.25Z" />
	<path id="Layer" class="shp2" d="M154.1 383.11C153.56 383.11 153.02 383.04 152.5 382.91C151.97 382.78 151.47 382.58 150.99 382.32C150.52 382.06 150.07 381.75 149.68 381.38C149.28 381.01 148.93 380.6 148.64 380.14L140.62 367.75C140.15 367.04 139.84 366.23 139.68 365.4C139.53 364.56 139.54 363.69 139.72 362.86C139.9 362.03 140.24 361.23 140.72 360.53C141.21 359.83 141.82 359.23 142.54 358.76L245.81 291.92C246.53 291.46 247.33 291.14 248.17 290.99C249.01 290.83 249.87 290.85 250.7 291.03C251.54 291.2 252.33 291.55 253.03 292.03C253.73 292.51 254.33 293.13 254.8 293.85L262.82 306.24C263.28 306.95 263.6 307.75 263.75 308.59C263.91 309.43 263.9 310.3 263.72 311.13C263.54 311.96 263.2 312.76 262.71 313.46C262.23 314.16 261.61 314.76 260.89 315.23L157.62 382.07C157.36 382.24 157.09 382.39 156.81 382.52C156.53 382.65 156.24 382.76 155.94 382.84C155.64 382.93 155.34 383 155.03 383.04C154.72 383.09 154.41 383.11 154.1 383.11L154.1 383.11Z" />
	<path id="Layer" class="shp3" d="M157.32 381.24L200.49 357.14C201.16 356.76 201.75 356.27 202.23 355.67C202.71 355.08 203.07 354.4 203.3 353.67C203.52 352.94 203.61 352.17 203.55 351.41C203.48 350.65 203.28 349.91 202.94 349.22L192.94 329.13C192.54 328.34 191.97 327.64 191.28 327.09C190.58 326.54 189.77 326.16 188.91 325.96C188.04 325.76 187.15 325.75 186.28 325.94C185.42 326.13 184.6 326.51 183.9 327.05L142.77 358.77C142.11 359.2 141.54 359.76 141.1 360.41C140.65 361.05 140.34 361.78 140.17 362.55C140.01 363.32 139.99 364.12 140.13 364.89C140.28 365.67 140.57 366.41 140.99 367.07L149.02 379.46C149.45 380.12 150 380.69 150.65 381.14C151.3 381.59 152.03 381.9 152.8 382.07C153.57 382.23 154.37 382.25 155.14 382.1C155.92 381.96 156.66 381.67 157.32 381.24L157.32 381.24Z" />
	<path id="Layer" class="shp2" d="M200.2 27.24C196.33 27.24 193.2 24.11 193.2 20.24C193.2 16.37 196.33 13.24 200.2 13.24C204.08 13.24 207.2 16.37 207.2 20.24C207.2 24.11 204.08 27.24 200.2 27.24Z" />
	<path id="Layer" class="shp2" d="M220.2 27.24C216.33 27.24 213.2 24.11 213.2 20.24C213.2 16.37 216.33 13.24 220.2 13.24C224.08 13.24 227.2 16.37 227.2 20.24C227.2 24.11 224.08 27.24 220.2 27.24Z" />
	<path id="Layer" class="shp2" d="M240.2 27.24C236.33 27.24 233.2 24.11 233.2 20.24C233.2 16.37 236.33 13.24 240.2 13.24C244.08 13.24 247.2 16.37 247.2 20.24C247.2 24.11 244.08 27.24 240.2 27.24Z" />
	<path id="Layer" class="shp0" d="M171.34 37L993.34 37L993.34 42L171.34 42L171.34 37Z" />
	<path id="Layer" class="shp2" d="M626.84 166.75C625.38 166.75 623.98 167.33 622.95 168.36C621.92 169.39 621.34 170.79 621.34 172.25C621.34 173.71 621.92 175.11 622.95 176.14C623.98 177.17 625.38 177.75 626.84 177.75L923.84 177.75C925.3 177.75 926.7 177.17 927.73 176.14C928.76 175.11 929.34 173.71 929.34 172.25C929.34 170.79 928.76 169.39 927.73 168.36C926.7 167.33 925.3 166.75 923.84 166.75L626.84 166.75Z" />
	<path id="Layer" class="shp2" d="M626.84 201.75C625.38 201.75 623.98 202.33 622.95 203.36C621.92 204.39 621.34 205.79 621.34 207.25C621.34 208.71 621.92 210.11 622.95 211.14C623.98 212.17 625.38 212.75 626.84 212.75L923.84 212.75C925.3 212.75 926.7 212.17 927.73 211.14C928.76 210.11 929.34 208.71 929.34 207.25C929.34 205.79 928.76 204.39 927.73 203.36C926.7 202.33 925.3 201.75 923.84 201.75L626.84 201.75Z" />
	<path id="Layer" class="shp2" d="M626.84 236.75C625.38 236.75 623.98 237.33 622.95 238.36C621.92 239.39 621.34 240.79 621.34 242.25C621.34 243.71 621.92 245.11 622.95 246.14C623.98 247.17 625.38 247.75 626.84 247.75L923.84 247.75C925.3 247.75 926.7 247.17 927.73 246.14C928.76 245.11 929.34 243.71 929.34 242.25C929.34 240.79 928.76 239.39 927.73 238.36C926.7 237.33 925.3 236.75 923.84 236.75L626.84 236.75Z" />
	<path id="Layer copy" class="shp2" d="M626.84 236.75C625.38 236.75 623.98 237.33 622.95 238.36C621.92 239.39 621.34 240.79 621.34 242.25C621.34 243.71 621.92 245.11 622.95 246.14C623.98 247.17 625.38 247.75 626.84 247.75L923.84 247.75C925.3 247.75 926.7 247.17 927.73 246.14C928.76 245.11 929.34 243.71 929.34 242.25C929.34 240.79 928.76 239.39 927.73 238.36C926.7 237.33 925.3 236.75 923.84 236.75L626.84 236.75Z" />
	<path id="Layer" class="shp1" d="M626.84 271.75C625.38 271.75 623.98 272.33 622.95 273.36C621.92 274.39 621.34 275.79 621.34 277.25C621.34 278.71 621.92 280.11 622.95 281.14C623.98 282.17 625.38 282.75 626.84 282.75L923.84 282.75C925.3 282.75 926.7 282.17 927.73 281.14C928.76 280.11 929.34 278.71 929.34 277.25C929.34 275.79 928.76 274.39 927.73 273.36C926.7 272.33 925.3 271.75 923.84 271.75L626.84 271.75Z" />
	<path id="Layer" class="shp1" d="M626.84 306.75C625.38 306.75 623.98 307.33 622.95 308.36C621.92 309.39 621.34 310.79 621.34 312.25C621.34 313.71 621.92 315.11 622.95 316.14C623.98 317.17 625.38 317.75 626.84 317.75L923.84 317.75C925.3 317.75 926.7 317.17 927.73 316.14C928.76 315.11 929.34 313.71 929.34 312.25C929.34 310.79 928.76 309.39 927.73 308.36C926.7 307.33 925.3 306.75 923.84 306.75L626.84 306.75Z" />
	<path id="Layer" class="shp1" d="M626.84 341.75C625.38 341.75 623.98 342.33 622.95 343.36C621.92 344.39 621.34 345.79 621.34 347.25C621.34 348.71 621.92 350.11 622.95 351.14C623.98 352.17 625.38 352.75 626.84 352.75L923.84 352.75C925.3 352.75 926.7 352.17 927.73 351.14C928.76 350.11 929.34 348.71 929.34 347.25C929.34 345.79 928.76 344.39 927.73 343.36C926.7 342.33 925.3 341.75 923.84 341.75L626.84 341.75Z" />
	<path id="Layer" class="shp2" d="M153.12 303.79C123.52 303.79 99.6 279.87 99.6 250.27C99.6 220.68 123.52 196.76 153.12 196.76C182.72 196.76 206.64 220.68 206.64 250.27C206.64 279.87 182.72 303.79 153.12 303.79Z" />
	<path id="Layer" class="shp4" d="M144.69 583.62L129.93 583.62C129.08 583.62 128.23 583.45 127.44 583.12C126.65 582.8 125.94 582.32 125.33 581.71C124.73 581.11 124.25 580.39 123.93 579.61C123.6 578.82 123.43 577.97 123.43 577.12L123.43 454.11C123.43 453.25 123.6 452.41 123.93 451.62C124.25 450.83 124.73 450.11 125.33 449.51C125.94 448.91 126.65 448.43 127.44 448.1C128.23 447.78 129.08 447.61 129.93 447.61L144.69 447.61C145.54 447.61 146.39 447.78 147.17 448.1C147.96 448.43 148.68 448.91 149.28 449.51C149.89 450.11 150.36 450.83 150.69 451.62C151.02 452.41 151.19 453.25 151.19 454.11L151.19 577.12C151.19 577.97 151.02 578.82 150.69 579.61C150.36 580.39 149.89 581.11 149.28 581.71C148.68 582.32 147.96 582.8 147.17 583.12C146.39 583.45 145.54 583.62 144.69 583.62L144.69 583.62Z" />
	<path id="Layer" class="shp4" d="M173.88 583.62L159.12 583.62C158.27 583.62 157.42 583.45 156.63 583.12C155.85 582.8 155.13 582.32 154.53 581.71C153.92 581.11 153.44 580.39 153.12 579.61C152.79 578.82 152.62 577.97 152.62 577.12L152.62 454.11C152.62 453.25 152.79 452.41 153.12 451.62C153.44 450.83 153.92 450.11 154.53 449.51C155.13 448.91 155.85 448.43 156.63 448.1C157.42 447.78 158.27 447.61 159.12 447.61L173.88 447.61C174.73 447.61 175.58 447.78 176.37 448.1C177.16 448.43 177.87 448.91 178.47 449.51C179.08 450.11 179.56 450.83 179.88 451.62C180.21 452.41 180.38 453.25 180.38 454.11L180.38 577.12C180.38 577.97 180.21 578.82 179.88 579.61C179.56 580.39 179.08 581.11 178.47 581.71C177.87 582.32 177.16 582.8 176.37 583.12C175.58 583.45 174.73 583.62 173.88 583.62L173.88 583.62Z" />
	<path id="Layer" class="shp3" d="M186.04 468.07L118.98 468.07C118.13 468.07 117.28 467.9 116.5 467.57C115.71 467.24 114.99 466.76 114.39 466.16C113.78 465.56 113.31 464.84 112.98 464.05C112.65 463.27 112.48 462.42 112.48 461.57L112.48 348.47C112.49 343.76 113.42 339.1 115.22 334.75C117.03 330.4 119.67 326.44 123 323.11C126.33 319.78 130.29 317.14 134.64 315.33C138.99 313.53 143.65 312.6 148.36 312.59L186.04 312.59C186.9 312.59 187.74 312.76 188.53 313.09C189.32 313.42 190.03 313.89 190.64 314.5C191.24 315.1 191.72 315.82 192.05 316.61C192.37 317.39 192.54 318.24 192.54 319.09L192.54 461.57C192.54 462.42 192.37 463.27 192.05 464.05C191.72 464.84 191.24 465.56 190.64 466.16C190.03 466.76 189.32 467.24 188.53 467.57C187.74 467.9 186.9 468.07 186.04 468.07L186.04 468.07Z" />
	<path id="Layer" class="shp4" d="M199.84 265.14L199.78 263.14C203.5 263.04 206.78 262.81 209.25 261.01C209.59 260.74 209.91 260.43 210.2 260.09C210.48 259.76 210.73 259.39 210.93 259C211.14 258.61 211.3 258.2 211.41 257.78C211.53 257.35 211.6 256.92 211.63 256.48C211.65 256.21 211.64 255.94 211.6 255.67C211.56 255.41 211.49 255.15 211.39 254.9C211.29 254.65 211.16 254.41 211.01 254.19C210.85 253.97 210.68 253.76 210.47 253.58C208.84 252.2 206.21 252.65 204.29 253.53L202.63 254.29L205.81 231.1L207.79 231.37L205.09 251.09C207.7 250.33 210.11 250.66 211.77 252.06C212.08 252.33 212.37 252.64 212.61 252.99C212.86 253.33 213.06 253.7 213.22 254.08C213.38 254.47 213.5 254.88 213.57 255.29C213.63 255.71 213.65 256.13 213.63 256.55C213.6 257.14 213.5 257.72 213.35 258.29C213.19 258.86 212.97 259.42 212.7 259.94C212.42 260.46 212.09 260.95 211.71 261.4C211.33 261.86 210.9 262.26 210.43 262.62C207.26 264.94 203.14 265.05 199.84 265.14Z" />
	<path id="Layer" class="shp4" d="M183.59 233.07L194.36 233.07L194.36 235.07L183.59 235.07L183.59 233.07Z" />
	<path id="Layer" class="shp2" d="M215.04 459.24C214.46 459.24 213.87 459.16 213.3 459C212.74 458.85 212.19 458.61 211.69 458.31C211.19 458.01 210.73 457.64 210.32 457.21C209.92 456.78 209.57 456.31 209.29 455.79L151.63 347.13C151.23 346.37 150.98 345.55 150.9 344.7C150.82 343.85 150.91 342.99 151.16 342.17C151.41 341.36 151.82 340.6 152.36 339.94C152.9 339.28 153.57 338.74 154.32 338.34L167.36 331.42C168.12 331.02 168.94 330.77 169.79 330.69C170.64 330.61 171.5 330.7 172.31 330.95C173.13 331.2 173.89 331.61 174.55 332.15C175.2 332.69 175.75 333.36 176.15 334.11L233.81 442.77C234.21 443.53 234.46 444.35 234.54 445.2C234.62 446.05 234.53 446.91 234.28 447.73C234.03 448.54 233.63 449.3 233.08 449.96C232.54 450.62 231.87 451.16 231.12 451.56L218.08 458.48C217.85 458.61 217.61 458.72 217.36 458.81C217.12 458.91 216.87 458.98 216.61 459.05C216.35 459.11 216.09 459.16 215.83 459.19C215.57 459.23 215.31 459.24 215.04 459.24L215.04 459.24Z" />
	<path id="Layer" class="shp3" d="M147.48 346.89L172.76 391.99C173.08 392.68 173.52 393.31 174.07 393.84C174.62 394.37 175.27 394.79 175.97 395.08C176.68 395.37 177.44 395.52 178.2 395.53C178.96 395.53 179.72 395.39 180.43 395.11L201.32 386.88C202.14 386.56 202.88 386.05 203.49 385.41C204.1 384.76 204.55 383.99 204.83 383.14C205.1 382.3 205.18 381.41 205.07 380.53C204.95 379.65 204.64 378.81 204.17 378.06L176.12 332.34C175.75 331.65 175.25 331.03 174.64 330.53C174.03 330.03 173.33 329.66 172.58 329.42C171.83 329.19 171.04 329.11 170.25 329.19C169.47 329.26 168.71 329.49 168.01 329.85L149.97 338.77C149.27 339.15 148.66 339.65 148.15 340.26C147.65 340.87 147.28 341.57 147.04 342.32C146.81 343.07 146.73 343.87 146.81 344.65C146.88 345.44 147.11 346.2 147.48 346.89Z" />
	<path id="Layer" class="shp4" d="M184.89 211.14C191.34 210.54 196.75 206.27 199.62 200.55C200.34 199.07 200.9 197.52 201.28 195.92C201.66 194.31 201.85 192.67 201.86 191.03C201.87 189.38 201.69 187.74 201.32 186.14C200.96 184.53 200.41 182.97 199.7 181.49C198.94 179.95 198.06 178.47 197.06 177.07C196.05 175.68 194.93 174.37 193.71 173.16C192.49 171.95 191.17 170.85 189.76 169.87C188.35 168.88 186.86 168.02 185.31 167.28C178.01 163.75 169.77 162.77 161.75 163.1C146.63 163.71 129.97 167.95 120.67 180.85C119.59 182.29 118.65 183.84 117.87 185.46C117.09 187.09 116.47 188.79 116.02 190.53C115.56 192.28 115.28 194.06 115.18 195.86C115.07 197.66 115.14 199.47 115.38 201.26C116.56 208.85 121.18 215.43 126.11 221.1C131.28 227.04 137.25 232.39 141.34 239.19C144.87 245.08 146.78 252.5 144.41 259.18C144.27 259.57 144.11 259.96 143.94 260.34C143.76 260.72 143.57 261.1 143.36 261.46C143.16 261.83 142.93 262.18 142.7 262.53C142.46 262.87 142.2 263.21 141.94 263.53C140.71 265.01 142.82 267.14 144.06 265.65C148.31 260.52 149.17 253.74 147.83 247.35C146.36 240.31 142.1 234.36 137.45 229.05C128.39 218.71 114.91 207.42 118.71 191.98C119.15 190.32 119.74 188.7 120.46 187.14C121.18 185.59 122.04 184.1 123.01 182.69C123.99 181.28 125.09 179.95 126.3 178.73C127.5 177.51 128.81 176.4 130.21 175.4C136.26 171.01 143.45 168.6 150.75 167.29C164.73 164.78 181.65 165.04 192.21 175.93C196.6 180.46 199.62 186.78 198.81 193.2C198.08 198.98 194.39 204.66 188.98 207.07C188.66 207.22 188.33 207.35 188 207.47C187.66 207.58 187.32 207.69 186.98 207.78C186.64 207.87 186.29 207.94 185.94 208C185.59 208.06 185.24 208.11 184.89 208.14C182.98 208.32 182.96 211.32 184.89 211.14L184.89 211.14Z" />
</svg>