<svg xmlns="http://www.w3.org/2000/svg" viewBox="0 0 314 426" width="314" height="426">
	<style>
		tspan { white-space:pre }
		.shp0 { fill: #3f3d56 } 
		.shp1 { fill: #44f1a6 } 
		.shp2 { fill: #2f2e41 } 
		.shp3 { fill: #ffffff } 
	</style>
	<path id="Layer" class="shp0" d="M33.43 314.93L33.43 317.01C33.43 318.72 33.77 320.41 34.42 321.99C35.08 323.56 36.04 325 37.24 326.2C38.45 327.41 39.88 328.37 41.46 329.02C43.04 329.68 44.73 330.01 46.44 330.02L156.72 330.02C158.43 330.01 160.12 329.68 161.69 329.02C163.27 328.37 164.7 327.41 165.91 326.21C167.12 325 168.08 323.56 168.73 321.99C169.39 320.41 169.72 318.72 169.72 317.01L169.72 314.93C169.72 314.18 169.66 313.42 169.53 312.68C169.4 311.94 169.21 311.21 168.95 310.5C168.69 309.79 168.37 309.11 168 308.46C167.62 307.8 167.19 307.18 166.71 306.61C166.54 306.41 166.37 306.22 166.2 306.04C166.03 305.86 165.85 305.68 165.67 305.5C165.48 305.33 165.3 305.16 165.1 305C164.91 304.84 164.71 304.68 164.51 304.53L107.31 304.53C106.97 304.53 106.63 304.46 106.31 304.33C106 304.2 105.71 304.01 105.47 303.76C105.23 303.52 105.04 303.24 104.91 302.92C104.78 302.6 104.71 302.27 104.71 301.93L46.44 301.93C44.73 301.93 43.04 302.27 41.46 302.92C39.89 303.57 38.45 304.53 37.25 305.74C36.04 306.95 35.08 308.38 34.43 309.96C33.77 311.53 33.43 313.22 33.43 314.93Z" />
	<path id="Layer" class="shp0" d="M107.82 425.21L94.3 425.21L94.3 329.5L107.82 329.5L107.82 425.21Z" />
	<path id="Layer" class="shp0" d="M55.8 424.74C55.8 426.2 76.3 425.31 101.58 425.31C126.86 425.31 147.36 426.2 147.36 424.74C147.36 423.28 126.86 411.69 101.58 411.69C76.3 411.69 55.8 423.28 55.8 424.74Z" />
	<path id="Layer" class="shp1" d="M54.66 312.73L100.81 320.1L154.43 328.66L173.02 331.63C173.9 331.77 174.81 331.73 175.68 331.52C176.55 331.31 177.37 330.94 178.09 330.41C178.82 329.89 179.43 329.22 179.9 328.46C180.37 327.7 180.68 326.85 180.82 325.97L181.67 320.7L182.45 315.8L183.09 311.77C183.16 311.32 183.19 310.86 183.17 310.41C183.15 309.95 183.09 309.5 182.98 309.05C182.87 308.61 182.71 308.18 182.51 307.77C182.32 307.36 182.08 306.97 181.8 306.61C181.64 306.38 181.46 306.17 181.27 305.97C181.08 305.77 180.88 305.58 180.67 305.41C180.46 305.23 180.23 305.07 180 304.92C179.77 304.78 179.52 304.64 179.27 304.53L107.31 304.53C106.97 304.53 106.63 304.46 106.31 304.33C106 304.2 105.71 304.01 105.47 303.76C105.23 303.52 105.04 303.24 104.91 302.92C104.78 302.6 104.71 302.27 104.71 301.93L104.71 299.88C104.71 299.53 104.78 299.2 104.91 298.88C105.04 298.56 105.23 298.28 105.47 298.04C105.71 297.8 106 297.6 106.31 297.47C106.63 297.34 106.97 297.27 107.31 297.27L135.59 297.27L122.55 295.19L82.48 288.8L59.08 285.06C58.19 284.92 57.29 284.96 56.41 285.16C55.54 285.37 54.72 285.75 53.99 286.28C53.27 286.8 52.65 287.47 52.18 288.23C51.71 289 51.4 289.84 51.25 290.73L48.99 304.92C48.85 305.81 48.89 306.71 49.1 307.58C49.31 308.45 49.68 309.27 50.21 310C50.74 310.72 51.4 311.34 52.16 311.81C52.92 312.27 53.77 312.59 54.66 312.73Z" />
	<path id="Layer" class="shp1" d="M154.43 310.76L154.43 390.05C154.43 390.94 154.61 391.83 154.95 392.65C155.29 393.48 155.79 394.23 156.43 394.86C157.06 395.49 157.81 396 158.64 396.34C159.46 396.68 160.35 396.86 161.24 396.86L175.63 396.86C176.53 396.86 177.41 396.68 178.24 396.34C179.06 396 179.82 395.49 180.45 394.86C181.08 394.23 181.58 393.48 181.93 392.65C182.27 391.83 182.45 390.94 182.45 390.05L182.45 310.76C182.45 310.39 182.42 310.01 182.36 309.65C182.29 309.28 182.2 308.92 182.08 308.56C181.96 308.21 181.81 307.87 181.63 307.54C181.46 307.21 181.25 306.9 181.02 306.61C180.85 306.38 180.67 306.16 180.47 305.96C180.27 305.76 180.06 305.57 179.84 305.39C179.61 305.22 179.38 305.06 179.13 304.91C178.89 304.77 178.64 304.64 178.38 304.53L158.49 304.53C158.23 304.64 157.98 304.77 157.73 304.91C157.49 305.06 157.26 305.22 157.04 305.4C156.81 305.57 156.6 305.76 156.41 305.96C156.21 306.17 156.02 306.38 155.85 306.61C155.62 306.9 155.42 307.21 155.24 307.54C155.07 307.87 154.92 308.21 154.79 308.56C154.67 308.92 154.58 309.28 154.52 309.65C154.46 310.01 154.43 310.39 154.43 310.76Z" />
	<path id="Layer" class="shp1" d="M111.07 176.56C111.08 176.73 111.11 176.91 111.14 177.08C111.17 177.26 111.21 177.43 111.26 177.6C111.3 177.78 111.35 177.94 111.41 178.11C111.47 178.28 111.53 178.45 111.61 178.61C111.71 178.85 111.84 179.1 111.97 179.33C112.11 179.56 112.26 179.79 112.42 180C112.59 180.21 112.76 180.42 112.95 180.61C113.14 180.81 113.34 180.99 113.55 181.16L113.58 181.18L154.64 214.48L155.24 214.96L163.74 221.86L166.31 223.94L210.77 223.94L208.21 221.86L173.07 193.35L149.53 174.25L131.21 159.39C130.94 159.17 130.66 158.98 130.36 158.8C130.07 158.63 129.76 158.48 129.44 158.35C129.12 158.23 128.79 158.12 128.46 158.05C128.12 157.97 127.78 157.92 127.44 157.89C127.44 157.89 127.44 157.89 127.44 157.89C127.44 157.89 127.43 157.89 127.43 157.89C127.43 157.89 127.43 157.88 127.43 157.88C127.42 157.88 127.42 157.88 127.42 157.88C127.32 157.88 127.22 157.87 127.11 157.87C127.01 157.86 126.91 157.86 126.81 157.87C126.7 157.87 126.6 157.87 126.5 157.88C126.4 157.88 126.29 157.89 126.19 157.9C126.04 157.92 125.89 157.94 125.74 157.97C125.59 157.99 125.44 158.02 125.29 158.06C125.14 158.1 124.99 158.14 124.85 158.18C124.7 158.23 124.56 158.28 124.41 158.34C124.32 158.38 124.22 158.41 124.13 158.46C124.03 158.5 123.94 158.54 123.84 158.59C123.75 158.63 123.66 158.68 123.57 158.74C123.48 158.79 123.4 158.84 123.31 158.9C123.15 159 122.99 159.11 122.84 159.22C122.69 159.33 122.54 159.45 122.4 159.57C122.26 159.7 122.12 159.83 121.99 159.96C121.86 160.1 121.73 160.24 121.61 160.39L112.69 171.39L112.55 171.56C112.27 171.91 112.02 172.28 111.81 172.68C111.61 173.07 111.44 173.48 111.31 173.91C111.18 174.34 111.1 174.78 111.06 175.22C111.01 175.67 111.02 176.11 111.07 176.56Z" />
	<path id="Layer" class="shp2" d="M113.58 181.18C113.78 181.66 113.99 182.13 114.23 182.6C114.46 183.06 114.72 183.51 115 183.95C115.28 184.39 115.58 184.81 115.89 185.22C116.21 185.63 116.55 186.03 116.9 186.41L144.23 215.77C144.89 216.38 145.67 216.85 146.51 217.15C147.35 217.46 148.25 217.6 149.14 217.56C150.04 217.52 150.92 217.3 151.73 216.92C152.54 216.54 153.27 216.01 153.88 215.34L154.64 214.48L154.97 214.11L166.78 200.86L171.86 195.16C171.94 195.07 172.02 194.98 172.1 194.89C172.18 194.8 172.25 194.7 172.33 194.6C172.4 194.51 172.47 194.41 172.54 194.31C172.6 194.2 172.67 194.1 172.73 193.99C172.85 193.79 172.97 193.57 173.07 193.35C173.18 193.11 173.27 192.86 173.35 192.61C173.43 192.35 173.49 192.1 173.54 191.84C173.58 191.58 173.62 191.32 173.64 191.05C173.65 190.79 173.66 190.52 173.64 190.26C173.63 189.81 173.56 189.36 173.46 188.93C173.35 188.49 173.2 188.06 173.01 187.66C172.82 187.25 172.59 186.86 172.32 186.5C172.05 186.14 171.74 185.81 171.41 185.51L139.72 161.29C138.85 160.62 137.93 160.04 136.95 159.56C135.98 159.07 134.96 158.68 133.91 158.39C132.86 158.1 131.78 157.92 130.7 157.83C129.61 157.75 128.52 157.77 127.44 157.89C127.44 157.89 127.44 157.89 127.44 157.89C127.44 157.89 127.43 157.89 127.43 157.89C127.43 157.89 127.43 157.88 127.43 157.88C127.42 157.88 127.42 157.88 127.42 157.88C127.18 157.91 126.94 157.95 126.69 157.99C126.45 158.03 126.21 158.08 125.97 158.13C125.73 158.18 125.49 158.23 125.26 158.29C125.02 158.35 124.78 158.42 124.55 158.49C124.13 158.6 123.73 158.75 123.31 158.9C122.64 159.15 121.99 159.45 121.36 159.78C120.73 160.12 120.12 160.49 119.54 160.9C118.95 161.32 118.4 161.76 117.87 162.25C117.35 162.73 116.85 163.25 116.39 163.79C115.39 164.97 114.55 166.28 113.91 167.68C113.26 169.08 112.81 170.57 112.56 172.09C112.31 173.62 112.28 175.17 112.45 176.71C112.62 178.24 113 179.75 113.58 181.18L113.58 181.18Z" />
	<path id="Layer" class="shp1" d="M100.61 133.71C71.77 133.71 48.46 110.4 48.46 81.57C48.46 52.73 71.77 29.42 100.61 29.42C129.44 29.42 152.75 52.73 152.75 81.57C152.75 110.4 129.44 133.71 100.61 133.71Z" />
	<path id="Layer" class="shp1" d="M86.72 305.55L106.06 308.63L106.5 308.7L135.9 313.39L154.43 316.36L181.67 320.7L182.45 320.83L186.49 321.47L205.09 324.44C205.97 324.58 206.87 324.54 207.74 324.33C208.61 324.13 209.43 323.75 210.16 323.22C210.88 322.7 211.49 322.03 211.96 321.27C212.43 320.51 212.75 319.66 212.89 318.78L214.51 308.63L215.16 304.59C215.16 304.57 215.17 304.55 215.17 304.53L107.31 304.53C106.97 304.53 106.63 304.46 106.31 304.33C106 304.2 105.71 304.01 105.47 303.76C105.23 303.52 105.04 303.24 104.91 302.92C104.78 302.6 104.71 302.27 104.71 301.92L104.71 299.88C104.71 299.53 104.78 299.2 104.91 298.88C105.04 298.56 105.23 298.28 105.47 298.04C105.71 297.8 106 297.6 106.31 297.47C106.63 297.34 106.97 297.27 107.31 297.27L141.39 297.27L141.39 285.9L139.31 285.57L129.03 283.93L91.13 277.88C90.25 277.74 89.34 277.78 88.47 277.98C87.6 278.19 86.78 278.57 86.05 279.1C85.33 279.62 84.71 280.28 84.24 281.05C83.77 281.81 83.46 282.66 83.32 283.54L82.48 288.8L81.05 297.74C80.91 298.63 80.95 299.53 81.16 300.4C81.37 301.27 81.75 302.09 82.27 302.82C82.8 303.54 83.46 304.15 84.23 304.62C84.99 305.09 85.84 305.4 86.72 305.55Z" />
	<path id="Layer" class="shp2" d="M29.63 259.48C29.63 301.99 33.95 327.41 100.54 320.13C100.63 320.12 100.71 320.11 100.81 320.1C103.77 319.81 106.73 319.45 109.68 319.02C112.64 318.59 115.58 318.1 118.5 317.54C121.43 316.98 124.35 316.35 127.25 315.66C130.15 314.97 133.03 314.21 135.9 313.39C137.39 312.96 138.87 312.49 140.34 311.99C141.81 311.49 143.26 310.95 144.71 310.39C146.15 309.82 147.58 309.22 149 308.59C150.42 307.96 151.82 307.3 153.21 306.61C154.52 305.94 155.78 305.24 157.02 304.53L107.31 304.53C106.97 304.53 106.63 304.46 106.31 304.33C106 304.2 105.71 304.01 105.47 303.76C105.23 303.52 105.04 303.24 104.91 302.92C104.78 302.6 104.71 302.27 104.71 301.93L104.71 299.88C104.71 299.53 104.78 299.2 104.91 298.88C105.04 298.56 105.23 298.28 105.47 298.04C105.71 297.8 106 297.6 106.31 297.47C106.63 297.34 106.97 297.27 107.31 297.27L141.39 297.27L141.39 231.56C141.39 230.56 141.59 229.57 141.98 228.65C142.36 227.72 142.92 226.88 143.63 226.17C144.34 225.47 145.18 224.9 146.1 224.52C147.03 224.14 148.02 223.94 149.02 223.94L176.75 223.94C176.51 223.25 176.27 222.55 176.01 221.86C175.36 220.06 174.68 218.27 173.97 216.49C173.26 214.72 172.52 212.95 171.75 211.2C170.98 209.45 170.18 207.71 169.35 205.99C168.52 204.27 167.66 202.56 166.78 200.86C165.57 198.51 164.29 196.19 162.97 193.9C161.64 191.61 160.25 189.35 158.81 187.13C157.37 184.91 155.88 182.72 154.33 180.57C152.78 178.43 151.18 176.32 149.53 174.25C148.38 172.81 147.19 171.4 145.97 170.01C144.75 168.63 143.49 167.28 142.2 165.96C140.91 164.64 139.59 163.35 138.24 162.1C136.89 160.85 135.5 159.63 134.09 158.44C123.65 149.83 112.29 144.5 100.77 144.5C58.26 144.5 29.63 216.97 29.63 259.48Z" />
	<path id="Layer" class="shp2" d="M99.51 100.89L99.46 98.95C103.08 98.84 106.28 98.62 108.68 96.86C109.02 96.6 109.33 96.3 109.6 95.97C109.88 95.65 110.12 95.29 110.32 94.91C110.52 94.53 110.68 94.13 110.79 93.72C110.91 93.3 110.98 92.88 111 92.45C111.02 92.19 111.01 91.93 110.97 91.67C110.93 91.41 110.86 91.15 110.77 90.91C110.67 90.67 110.55 90.43 110.4 90.22C110.25 90 110.07 89.81 109.88 89.63C108.28 88.28 105.72 88.72 103.85 89.58L102.23 90.32L105.33 67.72L107.26 67.99L104.63 87.21C107.17 86.46 109.52 86.78 111.13 88.14C111.44 88.41 111.72 88.72 111.96 89.05C112.2 89.38 112.4 89.74 112.55 90.12C112.71 90.5 112.82 90.89 112.89 91.3C112.95 91.7 112.97 92.11 112.95 92.52C112.92 93.09 112.83 93.67 112.67 94.22C112.52 94.78 112.31 95.31 112.04 95.82C111.77 96.33 111.45 96.81 111.08 97.25C110.71 97.69 110.29 98.09 109.83 98.44C106.74 100.69 102.73 100.8 99.51 100.89Z" />
	<path id="Layer" class="shp2" d="M116.8 69.64L127.3 69.64L127.3 71.59L116.8 71.59L116.8 69.64Z" />
	<path id="Layer" class="shp2" d="M83.68 69.64L94.17 69.64L94.17 71.59L83.68 71.59L83.68 69.64Z" />
	<path id="Layer" class="shp2" d="M101.89 53.14C108.34 52.54 113.75 48.27 116.62 42.55C117.34 41.07 117.9 39.52 118.28 37.92C118.66 36.31 118.85 34.67 118.86 33.03C118.87 31.38 118.69 29.74 118.32 28.14C117.96 26.53 117.41 24.97 116.7 23.49C115.94 21.95 115.06 20.47 114.06 19.07C113.05 17.68 111.93 16.37 110.71 15.16C109.49 13.95 108.17 12.85 106.76 11.87C105.35 10.88 103.86 10.02 102.31 9.28C95.01 5.75 86.77 4.77 78.75 5.1C63.63 5.71 46.97 9.95 37.67 22.85C36.59 24.29 35.65 25.84 34.87 27.46C34.09 29.09 33.47 30.79 33.02 32.53C32.56 34.28 32.28 36.06 32.18 37.86C32.07 39.66 32.14 41.47 32.38 43.26C33.56 50.85 38.18 57.43 43.11 63.1C48.28 69.04 54.25 74.39 58.34 81.19C61.87 87.08 63.78 94.5 61.41 101.18C61.27 101.57 61.11 101.96 60.94 102.34C60.76 102.72 60.57 103.1 60.36 103.46C60.16 103.83 59.93 104.18 59.7 104.53C59.46 104.87 59.2 105.21 58.94 105.53C57.71 107.01 59.82 109.14 61.06 107.65C65.31 102.52 66.17 95.74 64.83 89.35C63.36 82.31 59.1 76.36 54.45 71.05C45.39 60.71 31.91 49.42 35.71 33.98C36.15 32.32 36.74 30.7 37.46 29.14C38.18 27.59 39.04 26.1 40.01 24.69C40.99 23.28 42.09 21.95 43.3 20.73C44.5 19.51 45.81 18.4 47.21 17.4C53.26 13.01 60.45 10.6 67.75 9.29C81.73 6.78 98.65 7.04 109.21 17.93C113.6 22.46 116.62 28.78 115.81 35.2C115.08 40.98 111.39 46.66 105.98 49.07C105.66 49.22 105.33 49.35 105 49.47C104.66 49.58 104.32 49.69 103.98 49.78C103.64 49.87 103.29 49.94 102.94 50C102.59 50.06 102.24 50.11 101.89 50.14C99.98 50.32 99.96 53.32 101.89 53.14L101.89 53.14Z" />
	<path id="Layer" class="shp1" d="M67.29 194.87C67.31 194.92 67.33 194.96 67.35 195.01C67.37 195.06 67.39 195.1 67.42 195.15C67.44 195.19 67.47 195.24 67.49 195.29C67.51 195.33 67.54 195.38 67.57 195.42C67.59 195.47 67.62 195.51 67.65 195.56C67.67 195.6 67.7 195.65 67.73 195.7C67.76 195.74 67.79 195.79 67.82 195.83C67.85 195.87 67.88 195.92 67.91 195.96L90.71 228.79L92.48 231.33L111.09 258.09L129.03 283.93L136.29 294.39C136.34 294.46 136.39 294.53 136.45 294.6C136.5 294.67 136.55 294.74 136.61 294.81C136.66 294.87 136.72 294.94 136.77 295C136.83 295.07 136.89 295.13 136.95 295.19C137.23 295.49 137.53 295.75 137.86 295.99C138.18 296.23 138.53 296.44 138.89 296.62C139.25 296.79 139.63 296.94 140.02 297.05C140.41 297.16 140.8 297.23 141.21 297.27L141.39 297.27L141.39 252.63L139.31 249.64L115.98 216.05L90.91 179.98C90.4 179.25 89.75 178.62 89 178.14C88.25 177.65 87.4 177.32 86.52 177.16C85.64 177 84.74 177.02 83.86 177.21C82.99 177.4 82.16 177.76 81.42 178.26L73.74 183.6L69.61 186.47C68.96 186.92 68.39 187.48 67.94 188.13C67.48 188.77 67.14 189.49 66.93 190.25C66.72 191.01 66.64 191.8 66.7 192.59C66.76 193.38 66.96 194.15 67.29 194.87Z" />
	<path id="Layer" class="shp2" d="M63.72 194.07L64.75 196.14L64.76 196.15L65.04 196.7L81.76 229.89C82.22 230.65 82.84 231.32 83.56 231.85C84.28 232.37 85.1 232.76 85.97 232.97C86.84 233.18 87.74 233.22 88.63 233.08C89.52 232.95 90.37 232.64 91.13 232.18L92.21 231.5L92.48 231.33L114.04 217.81C114.81 217.34 115.48 216.73 116.01 216C116.54 215.28 116.92 214.45 117.13 213.58C117.35 212.71 117.38 211.8 117.24 210.91C117.1 210.02 116.78 209.17 116.31 208.4L92.63 176.3C91.48 174.74 90.07 173.38 88.46 172.3C86.85 171.21 85.07 170.41 83.19 169.92C81.31 169.44 79.36 169.28 77.43 169.45C75.5 169.62 73.61 170.12 71.84 170.93C71.64 171.02 71.44 171.11 71.25 171.21C71.05 171.31 70.86 171.41 70.66 171.52C70.47 171.62 70.28 171.73 70.09 171.85C69.9 171.96 69.72 172.08 69.53 172.2C67.81 173.34 66.3 174.78 65.1 176.46C63.89 178.14 63 180.03 62.47 182.03C61.93 184.03 61.77 186.11 61.98 188.16C62.2 190.22 62.79 192.22 63.72 194.07Z" />
	<path id="Layer" class="shp1" d="M186.49 304.53L186.49 382.86C186.49 383.75 186.67 384.64 187.01 385.46C187.36 386.29 187.86 387.04 188.49 387.67C189.12 388.31 189.88 388.81 190.7 389.15C191.53 389.49 192.41 389.67 193.31 389.67L207.7 389.67C208.59 389.67 209.48 389.49 210.3 389.15C211.13 388.81 211.88 388.31 212.51 387.67C213.15 387.04 213.65 386.29 213.99 385.46C214.33 384.64 214.51 383.75 214.51 382.86L214.51 304.53L186.49 304.53Z" />
	<path id="Layer" class="shp3" d="M102.63 299.88L102.63 301.92C102.63 302.46 102.72 303 102.9 303.5C103.08 304.01 103.35 304.48 103.69 304.9C104.03 305.31 104.44 305.67 104.9 305.94C105.36 306.22 105.87 306.42 106.39 306.52C106.54 306.54 106.69 306.58 106.83 306.59C106.99 306.6 107.14 306.61 107.31 306.61L267.7 306.61C268.97 306.61 270.23 306.36 271.41 305.87C272.59 305.38 273.66 304.66 274.56 303.76C275.47 302.86 276.18 301.79 276.67 300.62C277.16 299.44 277.41 298.18 277.41 296.9L277.41 231.56C277.41 230.29 277.16 229.03 276.67 227.85C276.18 226.67 275.47 225.6 274.56 224.7C273.66 223.8 272.59 223.08 271.41 222.6C270.23 222.11 268.97 221.86 267.7 221.86L149.02 221.86C147.74 221.86 146.48 222.11 145.31 222.6C144.13 223.09 143.06 223.8 142.16 224.7C141.26 225.6 140.54 226.67 140.05 227.85C139.56 229.03 139.31 230.29 139.31 231.56L139.31 295.19L107.31 295.19C106.69 295.19 106.09 295.31 105.52 295.55C104.95 295.79 104.43 296.13 104 296.57C103.56 297 103.22 297.52 102.98 298.08C102.75 298.65 102.63 299.26 102.63 299.88Z" />
	<path id="Layer" fill-rule="evenodd" class="shp0" d="M102.98 298.08C103.22 297.52 103.56 297 104 296.57C104.43 296.13 104.95 295.79 105.52 295.55C106.09 295.31 106.69 295.19 107.31 295.19L139.31 295.19L139.31 231.56C139.31 230.29 139.56 229.03 140.05 227.85C140.54 226.67 141.26 225.6 142.16 224.7C143.06 223.8 144.13 223.09 145.31 222.6C146.48 222.11 147.74 221.86 149.02 221.86L267.7 221.86C268.97 221.86 270.23 222.11 271.41 222.6C272.59 223.08 273.66 223.8 274.56 224.7C275.47 225.6 276.18 226.67 276.67 227.85C277.16 229.03 277.41 230.29 277.41 231.56L277.41 296.9C277.41 298.18 277.16 299.44 276.67 300.62C276.18 301.79 275.47 302.86 274.56 303.76C273.66 304.66 272.59 305.38 271.41 305.87C270.23 306.36 268.97 306.61 267.7 306.61L107.31 306.61C107.14 306.61 106.99 306.6 106.83 306.59C106.69 306.58 106.54 306.54 106.39 306.52C105.87 306.42 105.36 306.22 104.9 305.94C104.44 305.67 104.03 305.31 103.69 304.9C103.35 304.48 103.08 304.01 102.9 303.5C102.72 303 102.63 302.46 102.63 301.92L102.63 299.88C102.63 299.26 102.75 298.65 102.98 298.08ZM104.71 301.93C104.71 302.27 104.78 302.6 104.91 302.92C105.04 303.24 105.23 303.52 105.47 303.76C105.71 304.01 106 304.2 106.31 304.33C106.63 304.46 106.97 304.53 107.31 304.53L267.7 304.53C268.7 304.53 269.69 304.33 270.62 303.94C271.54 303.56 272.38 303 273.09 302.29C273.8 301.58 274.36 300.74 274.75 299.82C275.13 298.89 275.33 297.9 275.33 296.9L275.33 231.56C275.33 230.56 275.13 229.57 274.75 228.64C274.36 227.72 273.8 226.88 273.09 226.17C272.38 225.46 271.54 224.9 270.62 224.52C269.69 224.14 268.7 223.94 267.7 223.94L149.02 223.94C148.02 223.94 147.03 224.14 146.1 224.52C145.18 224.9 144.34 225.47 143.63 226.17C142.92 226.88 142.36 227.72 141.98 228.65C141.59 229.57 141.39 230.56 141.39 231.56L141.39 297.27L107.31 297.27C106.97 297.27 106.63 297.34 106.31 297.47C106 297.6 105.71 297.8 105.47 298.04C105.23 298.28 105.04 298.56 104.91 298.88C104.78 299.2 104.71 299.53 104.71 299.88L104.71 301.93Z" />
	<path id="Layer" class="shp0" d="M139.34 296.3L141.42 296.3L141.42 305.66L139.34 305.66L139.34 296.3Z" />
</svg>